<svg width="32" height="32" viewBox="0 0 32 32" fill="none" xmlns="http://www.w3.org/2000/svg">
<g clip-path="url(#clip0_1002_52)">
<path d="M14.0003 0.998047H17.9969C18.1854 1.02161 18.373 1.04679 18.5615 1.06791C21.3776 1.38311 23.9125 2.39288 26.1176 4.18335C28.893 6.44092 30.6219 9.33214 31.2678 12.8578C31.3678 13.4013 31.4263 13.9521 31.5043 14.4996V15.6499C31.2459 16.2998 30.7584 16.507 30.0751 16.5062C20.691 16.4932 11.3072 16.4902 1.92366 16.4972C1.82291 16.4972 1.72135 16.4972 1.6206 16.4972C0.964125 16.4745 0.501824 16.0098 0.505886 15.3534C0.505172 14.8792 0.528497 14.4053 0.575763 13.9334C0.882066 11.1283 1.88953 8.60182 3.66967 6.40599C5.92835 3.61875 8.82726 1.88272 12.3632 1.23445C12.9034 1.13452 13.4519 1.07603 14.0003 0.998047ZM11.5702 9.30371C11.5702 9.10224 11.5816 8.89752 11.5702 8.70012C11.5287 8.1079 11.0876 7.67247 10.5221 7.65135C9.9241 7.62942 9.43906 8.01448 9.38462 8.62132C9.34196 9.07199 9.34196 9.52568 9.38462 9.97635C9.40786 10.2558 9.54029 10.5148 9.7532 10.6973C9.96611 10.8797 10.2424 10.971 10.5221 10.9512C11.1087 10.9195 11.5434 10.48 11.5783 9.8748C11.5832 9.68633 11.5702 9.49461 11.5702 9.30371ZM20.4262 9.30371C20.4262 9.51492 20.4099 9.72776 20.4262 9.93736C20.4467 10.2115 20.5694 10.4679 20.7699 10.6559C20.9705 10.844 21.2343 10.9499 21.5092 10.9528C21.7798 10.9649 22.0446 10.8725 22.2491 10.6949C22.4535 10.5173 22.5819 10.2679 22.6077 9.99828C22.6517 9.53899 22.6517 9.07654 22.6077 8.61726C22.55 8.01204 22.0617 7.62779 21.4637 7.65135C20.895 7.6741 20.4595 8.11115 20.4188 8.70743C20.4172 8.90402 20.4286 9.1063 20.4286 9.30696L20.4262 9.30371ZM17.0877 9.31914C17.0877 9.07543 17.1064 8.83172 17.0877 8.59532C17.0564 8.33318 16.9299 8.09168 16.7321 7.91674C16.5344 7.7418 16.2793 7.64561 16.0152 7.64647C15.4506 7.6416 14.9533 8.05266 14.9168 8.59776C14.8875 9.05981 14.8875 9.52324 14.9168 9.98529C14.9501 10.5328 15.4457 10.9536 16.0039 10.9528C16.2731 10.9547 16.5335 10.8565 16.7343 10.6773C16.9352 10.498 17.0623 10.2505 17.0909 9.98285C17.108 9.76595 17.0901 9.54336 17.0901 9.31995L17.0877 9.31914Z" fill="#60340B"/>
<path d="M31.4996 24.0051V27.0296C31.4046 27.4187 31.3371 27.8184 31.2088 28.1953C30.3963 30.5471 28.3521 31.9923 25.8359 31.994C19.277 31.994 12.7176 31.994 6.15771 31.994C6.00659 31.994 5.85466 31.994 5.70354 31.9826C3.22142 31.8534 1.0188 29.9704 0.627185 27.5194C0.46469 26.5032 0.520751 25.4503 0.500439 24.4129C0.48419 23.5705 0.918864 23.144 1.75978 23.144C6.815 23.144 11.8708 23.1427 16.9271 23.14C17.292 23.1347 17.6476 23.2549 17.9345 23.4803C18.9964 24.2838 20.0632 25.0799 21.1292 25.8785C21.2641 25.9792 21.4014 26.0775 21.5354 26.1782C22.7468 25.27 23.9436 24.3772 25.1339 23.4771C25.4212 23.2516 25.7778 23.1325 26.143 23.14C27.4649 23.1489 28.7868 23.1627 30.1087 23.1351C30.792 23.1229 31.2608 23.3577 31.4996 24.0051Z" fill="#60340B"/>
<path d="M31.5001 20.0701C31.2499 20.7273 30.7616 20.932 30.0775 20.9312C20.6527 20.9187 11.228 20.916 1.80331 20.9231C1.10133 20.9231 0.684529 20.6444 0.537471 20.0822C0.499544 19.933 0.493684 19.7773 0.520274 19.6256C0.546864 19.4739 0.605304 19.3296 0.691739 19.2021C0.778175 19.0746 0.890645 18.9669 1.02174 18.886C1.15284 18.8051 1.29959 18.753 1.45232 18.7329C1.59293 18.7184 1.73429 18.7124 1.87562 18.715C11.2917 18.715 20.7072 18.7123 30.1221 18.7069C30.8014 18.7069 31.2694 18.9352 31.5033 19.5851L31.5001 20.0701Z" fill="#60340B"/>
</g>
<defs>
<clipPath id="clip0_1002_52">
<rect width="31" height="31" fill="white" transform="translate(0.5 0.998047)"/>
</clipPath>
</defs>
</svg>
