<svg width="32" height="32" viewBox="0 0 32 32" fill="none" xmlns="http://www.w3.org/2000/svg">
<g clip-path="url(#clip0_1002_211)">
<path d="M27.16 22.4196C28.3391 22.3877 29.3434 22.748 30.184 23.5357C30.9475 24.2501 31.3648 25.1447 31.4929 26.1858C31.5353 26.5305 31.3843 26.7382 31.0832 26.8494C31.3376 29.0117 30.4343 30.5225 28.6614 30.9534C27.2542 31.2982 25.2515 30.6225 24.7018 28.3352C24.684 28.3352 24.6577 28.3292 24.6492 28.3352C24.1513 28.8945 23.7925 28.8308 23.5244 28.131C23.4591 27.9586 23.4091 27.7862 23.3684 27.6621C23.0503 27.6966 22.7466 27.7578 22.4421 27.7586C19.8165 27.7661 17.1909 27.7661 14.5653 27.7586C14.3108 27.7586 14.1887 27.7836 14.1412 28.1034C13.9036 29.6823 12.5083 30.8423 10.9178 30.8276C10.1489 30.8241 9.40635 30.5424 8.82329 30.0331C8.24023 29.5238 7.85478 28.8201 7.73604 28.0482C7.72332 27.962 7.70381 27.881 7.69024 27.8104C7.43577 27.7604 7.18977 27.7397 6.96244 27.663C6.00477 27.3415 5.46698 26.4047 5.54926 25.2568C5.60792 24.4729 5.80113 23.7055 6.12014 22.9893C6.43484 22.2748 6.79873 21.5836 7.15924 20.8899C7.18793 20.8385 7.22745 20.7943 7.27497 20.7603C7.32249 20.7263 7.37682 20.7035 7.43407 20.6934C9.93215 20.6839 12.4311 20.6865 14.9292 20.6882C14.9499 20.6915 14.9699 20.6982 14.9885 20.708C14.8248 22.2533 15.0556 23.1211 15.7842 23.6124C15.813 23.172 15.8427 22.7506 15.869 22.3248C15.9708 20.5868 16.0726 18.8482 16.1744 17.109C16.2049 16.5919 16.0556 16.4109 15.5433 16.3549C14.7756 16.2687 14.008 16.1877 13.2412 16.0964C13.0296 16.0753 12.8248 16.009 12.6403 15.9017C12.4558 15.7944 12.2958 15.6487 12.1707 15.4741C12.0456 15.2994 11.9583 15.0999 11.9146 14.8885C11.8709 14.6771 11.8717 14.4588 11.917 14.2477C12.3892 11.9128 12.8679 9.57893 13.3531 7.24625C13.5677 6.21205 14.4262 5.59757 15.4254 5.71909C16.3262 5.82768 16.9997 6.649 17.0218 7.63752C17.0322 7.79109 17.0918 7.93698 17.1914 8.05292C18.0762 9.05264 19.24 9.5818 20.4504 10.0351C21.024 10.2571 21.6352 10.3611 22.2487 10.3411C23.0732 10.3109 23.8994 10.3307 24.7256 10.335C25.7596 10.3411 26.3652 10.9538 26.3712 11.9967C26.3712 12.319 26.3788 12.6422 26.3661 12.9645C26.3543 13.3506 26.1975 13.7175 25.928 13.9899C25.6584 14.2623 25.2965 14.4197 24.9164 14.4296C24.5771 14.4408 24.2438 14.4296 23.8629 14.4296C24.1055 16.2524 24.4914 17.9364 26.0276 19.0973C27.0133 19.8427 27.3967 20.864 27.205 22.1025C27.188 22.1964 27.177 22.2912 27.16 22.4196ZM20.7821 12.8671C19.1433 12.6782 17.5886 12.0301 16.2915 10.9952C16.1668 11.5407 16.0463 12.038 15.9394 12.5379C15.8546 12.9516 15.9496 13.1282 16.3432 13.2799C17.0648 13.5569 17.7869 13.8318 18.5096 14.1047C19.4232 14.4494 19.7752 14.9717 19.6785 15.9499C19.469 18.0777 19.2366 20.203 19.0152 22.3274C18.9524 22.9307 18.893 23.534 18.832 24.1519H20.7829L20.7821 12.8671ZM27.9073 29.9779C29.5368 29.9848 30.6361 28.2809 29.9728 26.7831C29.9397 26.6871 29.8794 26.6033 29.7996 26.542C29.7198 26.4807 29.624 26.4446 29.5241 26.4383C28.2678 26.309 27.0837 26.5245 25.9835 27.1735C25.8843 27.2241 25.8019 27.3031 25.7466 27.4009C25.6913 27.4986 25.6654 27.6108 25.6722 27.7233C25.6819 28.3209 25.9209 28.8909 26.3382 29.3121C26.7556 29.7332 27.3183 29.9721 27.9065 29.9779H27.9073ZM8.76157 27.7828C8.75054 28.8868 9.84903 29.8512 11.0459 29.7995C12.1622 29.7529 13.2038 28.748 13.1199 27.7828H8.76157Z" fill="#60340B"/>
<path d="M5.58778 7.26365C6.73065 7.26365 7.87352 7.26365 9.01639 7.26365C10.0343 7.26365 10.6645 7.90399 10.6654 8.93043C10.6654 10.7472 10.6654 12.5639 10.6654 14.3806C10.6654 15.3907 10.0309 16.0371 9.04099 16.0379C6.73376 16.0379 4.42653 16.0379 2.1193 16.0379C1.14806 16.0379 0.507634 15.3872 0.502545 14.4056C0.499152 12.5671 0.499152 10.7285 0.502545 8.88992C0.502545 7.92467 1.14806 7.26882 2.09555 7.26451C3.25935 7.25934 4.42314 7.26365 5.58778 7.26365Z" fill="#60340B"/>
<path d="M15.2184 19.6523H13.7458C11.5769 19.6523 9.40706 19.6523 7.2381 19.6575C7.14503 19.6652 7.05156 19.6484 6.96682 19.6085C6.88209 19.5686 6.80897 19.5071 6.7546 19.43C6.35729 18.9213 6.12706 18.2989 6.09636 17.6503C6.07515 17.2073 6.26007 17.0039 6.69013 17.0039C9.33553 17.0039 11.9812 17.0039 14.6272 17.0039C14.9894 17.0039 15.204 17.1651 15.2133 17.4943C15.232 18.1975 15.2184 18.9051 15.2184 19.6523Z" fill="#60340B"/>
<path d="M14.2246 2.60454C14.2298 1.91942 14.5024 1.26439 14.9825 0.783329C15.4627 0.302268 16.1111 0.0345115 16.7855 0.0388708C17.1197 0.0416884 17.45 0.111358 17.7577 0.243901C18.0654 0.376444 18.3444 0.569264 18.5787 0.811352C18.813 1.05344 18.9981 1.34005 19.1234 1.65483C19.2487 1.9696 19.3118 2.30637 19.309 2.6459C19.3003 3.32578 19.0284 3.9748 18.5521 4.45243C18.0758 4.93006 17.4335 5.19784 16.7643 5.19778C16.4299 5.1971 16.0989 5.12947 15.7902 4.99875C15.4816 4.86803 15.2013 4.67678 14.9655 4.43594C14.7296 4.1951 14.5428 3.90939 14.4156 3.59515C14.2885 3.2809 14.2236 2.94429 14.2246 2.60454Z" fill="#60340B"/>
</g>
<defs>
<clipPath id="clip0_1002_211">
<rect width="31" height="31" fill="white" transform="translate(0.5 0.0371094)"/>
</clipPath>
</defs>
</svg>
