<svg width="28" height="32" viewBox="0 0 28 32" fill="none" xmlns="http://www.w3.org/2000/svg">
<g clip-path="url(#clip0_1002_79)">
<path d="M14.9251 0.998003C15.5833 1.09735 16.2544 1.14437 16.8982 1.30136C22.5938 2.70742 26.1132 6.27565 27.4752 11.956C27.5698 12.3896 27.6359 12.8289 27.6731 13.271C27.7187 13.7018 27.7286 14.1356 27.7583 14.6415C27.6267 14.5451 27.4886 14.4576 27.3451 14.3798C26.9403 14.1993 26.5355 14.0158 26.1192 13.8687C25.9404 13.8057 25.8643 13.7405 25.8461 13.5456C25.6667 11.4855 24.9373 9.51085 23.7337 7.82656C22.3788 5.89422 20.4688 4.41579 18.2549 3.58563C16.5477 2.92943 14.7084 2.68716 12.8888 2.87881C10.5865 3.0981 8.40287 3.99964 6.61941 5.4672C4.70477 7.00369 3.32561 9.10332 2.6785 11.4668C2.48522 12.1494 2.41902 12.8721 2.28434 13.5744C2.26683 13.6662 2.20824 13.7921 2.13215 13.8239C1.56297 14.0689 0.985413 14.2941 0.358398 14.5467C0.434492 13.8216 0.458079 13.0564 0.602657 12.314C1.52872 7.54671 4.22397 4.14608 8.64731 2.12118C10.0059 1.50934 11.4636 1.14561 12.9512 1.0473C13.0406 1.03531 13.1293 1.01809 13.2168 0.995728L14.9251 0.998003Z" fill="#60340B"/>
<path d="M16.6407 28.3555C17.6832 28.3555 18.7173 28.3942 19.7469 28.3449C20.8723 28.2911 21.8471 27.4758 22.0913 26.5248C21.6348 26.5035 21.1508 26.5543 20.7057 26.4489C19.4516 26.1456 18.6511 25.1263 18.6382 23.831C18.6161 21.3685 18.6032 18.906 18.6382 16.4442C18.6709 14.2699 20.921 13.0315 22.7891 14.1342C23.6581 14.6468 24.0827 15.4591 24.0903 16.4541C24.104 19.5635 24.1208 22.6729 24.0842 25.7823C24.0561 28.1773 22.0738 30.1226 19.6708 30.181C18.7394 30.2037 17.808 30.1916 16.8766 30.181C16.6978 30.181 16.6148 30.2386 16.5395 30.3986C15.9863 31.5878 14.7452 32.2074 13.4866 31.9351C12.2729 31.6727 11.3864 30.595 11.3423 29.3293C11.2997 28.0878 12.1847 26.9502 13.4433 26.6294C14.6326 26.3261 15.9544 26.9442 16.5007 28.0575C16.5494 28.1583 16.5943 28.2569 16.6407 28.3555Z" fill="#60340B"/>
<path d="M9.51665 20.1634C9.51665 21.3541 9.52274 22.5447 9.51665 23.7346C9.50904 24.9723 8.78158 26.028 7.7117 26.3776C5.87403 26.9768 4.09115 25.7664 4.05919 23.8393C4.02063 21.3685 4.02063 18.8969 4.05919 16.4245C4.09724 14.2646 6.33364 13.0375 8.19718 14.1273C9.10118 14.6582 9.506 15.5 9.51361 16.5314C9.5235 17.7426 9.51665 18.953 9.51665 20.1634Z" fill="#60340B"/>
<path d="M2.25928 15.7207V24.5605C1.53791 24.3178 0.991553 23.8613 0.693264 23.1711C0.527298 22.7834 0.434685 22.3684 0.420089 21.9471C0.385086 20.7382 0.401065 19.5271 0.409435 18.3174C0.414762 17.0858 1.17114 16.0241 2.25928 15.7207Z" fill="#60340B"/>
<path d="M25.8936 24.5453V15.7055C26.4491 15.8832 26.9287 16.2416 27.2556 16.7233C27.5792 17.1798 27.7499 17.7266 27.7434 18.2856C27.7434 19.5157 27.7533 20.7458 27.7434 21.9759C27.7305 23.1916 26.9733 24.2329 25.8936 24.5453Z" fill="#60340B"/>
</g>
<defs>
<clipPath id="clip0_1002_79">
<rect width="27.3953" height="31" fill="white" transform="translate(0.365234 0.998047)"/>
</clipPath>
</defs>
</svg>
