<svg width="30" height="34" viewBox="0 0 30 34" fill="none" xmlns="http://www.w3.org/2000/svg">
<g clip-path="url(#clip0_1002_223)">
<path d="M15.5987 0.0371094C15.8892 0.0996289 16.1844 0.147969 16.4702 0.226602C18.5565 0.800234 19.9059 2.12475 20.6768 4.08928C18.1634 4.56301 16.2963 5.87527 14.9983 8.01383C13.7036 5.87592 11.8372 4.56172 9.33105 4.08928C9.88812 2.56496 10.853 1.39578 12.3296 0.692598C12.9746 0.385801 13.7069 0.250449 14.3992 0.0371094C14.799 0.0371094 15.1989 0.0371094 15.5987 0.0371094Z" fill="#60340B"/>
<path d="M8.73423 33.0372C8.58164 32.936 8.40906 32.8535 8.28046 32.7291C7.9073 32.3675 7.89664 31.8113 8.26913 31.4213C8.66027 31.0121 9.0694 30.617 9.49453 30.2412C9.57316 30.1716 9.78039 30.1819 9.90233 30.2244C11.1924 30.6724 12.5177 30.9495 13.885 31.0559C16.008 31.2209 18.0643 30.9308 20.0587 30.2277C20.3239 30.1342 20.4778 30.1729 20.6557 30.3643C20.9149 30.6434 21.2008 30.8986 21.4753 31.1642C22.2463 31.9086 22.1783 32.5087 21.2621 33.0378H8.73423V33.0372Z" fill="#60340B"/>
<path d="M27.2607 0.0371094C27.324 0.0751367 27.3853 0.115742 27.4506 0.150547C28.0283 0.457988 28.1969 1.15666 27.7458 1.62459C26.8395 2.56561 25.8973 3.47439 24.9631 4.38963C24.9112 4.44055 24.7865 4.45859 24.7059 4.44248C24.1222 4.32518 23.5405 4.19756 22.9601 4.06607C22.8735 4.04609 22.7955 3.98938 22.7129 3.94941C22.7569 3.86949 22.7842 3.77475 22.8468 3.71287C23.9769 2.59332 25.1091 1.47506 26.2492 0.363887C26.3844 0.231758 26.567 0.144746 26.7276 0.0371094H27.2607V0.0371094Z" fill="#60340B"/>
<path d="M2.40039 19.4478H18.1634C18.7397 20.6949 19.7106 21.4252 21.1646 21.3562C22.4553 21.295 23.3142 20.5866 23.8186 19.449H27.5807C26.7758 23.527 22.5605 28.8482 15.5773 29.1512C8.55205 29.456 3.49985 24.4313 2.40039 19.4478Z" fill="#60340B"/>
<path d="M27.9634 11.703C27.2697 11.703 26.5734 11.6966 25.8778 11.7056C25.402 11.7114 24.9176 11.6908 24.4518 11.7669C23.0318 11.9976 22.0143 13.1719 21.9997 14.5706C21.9857 15.859 22.003 17.1474 21.993 18.4352C21.987 19.1957 21.2294 19.6611 20.5544 19.3298C20.1712 19.1416 19.9966 18.8251 19.9966 18.4133C19.9966 17.2003 19.998 15.9872 19.9966 14.7736C19.9946 12.9315 18.7273 11.7063 16.8242 11.7037C16.5603 11.7037 16.2964 11.7037 15.9893 11.7037C16.0692 9.63732 16.9188 7.99119 18.6873 6.88131C20.7729 5.57291 22.9532 5.54391 25.1028 6.75047C27.1158 7.88033 28.052 10.0337 27.9627 11.7037L27.9634 11.703Z" fill="#60340B"/>
<path d="M17.998 17.504H17.5782C12.1361 17.504 6.69348 17.504 1.25147 17.504C0.359908 17.504 0.00341588 17.1592 0.0054149 16.2936C0.00608125 15.961 -0.017907 15.6233 0.0300695 15.2965C0.175332 14.3045 1.00693 13.6394 2.07973 13.6381C5.26751 13.6349 8.45462 13.6368 11.6424 13.6368C13.3749 13.6368 15.1074 13.6368 16.8405 13.6368C17.6021 13.6368 17.996 14.0126 17.9973 14.7396C17.9993 15.6497 17.9973 16.5604 17.9973 17.5033L17.998 17.504Z" fill="#60340B"/>
<path d="M14.0164 11.6903H2.00098C2.05362 9.80116 2.79592 8.2401 4.35383 7.11411C6.34485 5.67487 8.52645 5.46991 10.7414 6.55981C12.861 7.60266 13.8852 9.37319 14.0164 11.6903Z" fill="#60340B"/>
<path d="M23.9982 17.5012C23.9982 16.4835 23.9835 15.5071 24.0042 14.5319C24.0149 14.0369 24.4473 13.6476 24.9677 13.6418C26.0112 13.6295 27.056 13.6205 28.0995 13.6457C29.1024 13.6695 29.9293 14.4707 29.9853 15.4394C30.0073 15.8145 30.0026 16.1916 29.9886 16.5667C29.9693 17.0707 29.5768 17.4909 29.0637 17.4954C27.3886 17.5116 25.7134 17.5019 23.9982 17.5019V17.5012Z" fill="#60340B"/>
</g>
<defs>
<clipPath id="clip0_1002_223">
<rect width="30" height="33" fill="white" transform="translate(0 0.0371094)"/>
</clipPath>
</defs>
</svg>
