<svg width="28" height="15" viewBox="0 0 28 15" fill="none" xmlns="http://www.w3.org/2000/svg">
<g clip-path="url(#clip0_1002_239)">
<path d="M0.5 8.59427H2.55485L3.6967 2.91458H1.64158L0.5 8.59427ZM1.7548 2.23716H3.81826L4.15737 0.537832H2.09472L1.7548 2.23716ZM3.35409 10.1925H5.40921L6.66482 4.05617H8.20603L8.43327 2.91458H6.92164L6.97892 2.65776C7.06444 2.1737 7.23575 1.6302 8.00622 1.6302C8.46339 1.6302 8.89124 1.65871 9.3191 1.85852L9.54769 0.659924C9.07086 0.491678 8.56914 0.40477 8.0635 0.402832C6.408 0.402832 5.26668 1.37338 4.83829 2.91458H4.12483L3.89651 4.05617H4.60997L3.35409 10.1925Z" fill="#60340B"/>
<path d="M9.86171 8.70867C12.2877 8.70867 13.9717 6.51075 13.9717 4.71272C13.9717 3.37133 12.7443 2.8004 11.5457 2.8004C8.89062 2.8004 7.43574 5.1707 7.43574 6.79635C7.43574 8.13774 8.69162 8.70867 9.86171 8.70867ZM16.3697 8.70867C18.7956 8.70867 20.4796 6.51075 20.4796 4.71272C20.4796 3.37133 19.2238 2.8004 18.0249 2.8004C15.3706 2.8004 13.9152 5.16936 13.9152 6.79635C13.9152 8.13774 15.1996 8.70867 16.3697 8.70867ZM23.8189 8.59438H25.8452L27.5002 0.518311H25.4453L24.9599 2.91577L24.1037 2.83025C22.1058 2.83025 20.2793 5.39875 20.2793 7.22555C20.2793 7.96751 20.7634 8.70974 21.5922 8.70974C22.7623 8.70974 23.59 8.13882 23.9318 7.56789H24.0459L23.8189 8.59438ZM17.4822 12.8471C15.8872 14.1687 13.8385 14.814 11.774 14.6452C9.06246 14.4739 7.12164 12.3902 6.7793 10.1926H6.89332C7.52126 11.5641 9.03396 12.8471 10.8893 13.0467C12.7717 13.275 15.0277 12.419 16.2548 11.2487L14.8849 10.1926H19.0234L18.1091 14.5882L17.5096 12.8757L17.4822 12.8471Z" fill="#60340B"/>
</g>
<defs>
<clipPath id="clip0_1002_239">
<rect width="27" height="14.2686" fill="white" transform="translate(0.5 0.402832)"/>
</clipPath>
</defs>
</svg>
