<svg width="19" height="19" viewBox="0 0 19 19" fill="none" xmlns="http://www.w3.org/2000/svg">
<path d="M9.50206 4.66872C6.94756 4.66872 4.88709 6.72919 4.88709 9.28369C4.88709 11.8382 6.94756 13.8987 9.50206 13.8987C12.0566 13.8987 14.117 11.8382 14.117 9.28369C14.117 6.72919 12.0566 4.66872 9.50206 4.66872ZM9.50206 12.284C7.85128 12.284 6.50173 10.9385 6.50173 9.28369C6.50173 7.62889 7.84726 6.28336 9.50206 6.28336C11.1569 6.28336 12.5024 7.62889 12.5024 9.28369C12.5024 10.9385 11.1529 12.284 9.50206 12.284ZM15.3822 4.47994C15.3822 5.0784 14.9003 5.55637 14.3058 5.55637C13.7074 5.55637 13.2294 5.07439 13.2294 4.47994C13.2294 3.8855 13.7114 3.40352 14.3058 3.40352C14.9003 3.40352 15.3822 3.8855 15.3822 4.47994ZM18.4388 5.57243C18.3705 4.13051 18.0412 2.85326 16.9848 1.80093C15.9325 0.748603 14.6552 0.419249 13.2133 0.346951C11.7272 0.262605 7.2729 0.262605 5.78679 0.346951C4.34888 0.415232 3.07163 0.744586 2.01528 1.79691C0.958942 2.84924 0.633604 4.12649 0.561307 5.56842C0.47696 7.05453 0.47696 11.5088 0.561307 12.9949C0.629588 14.4369 0.958942 15.7141 2.01528 16.7665C3.07163 17.8188 4.34486 18.1481 5.78679 18.2204C7.2729 18.3048 11.7272 18.3048 13.2133 18.2204C14.6552 18.1521 15.9325 17.8228 16.9848 16.7665C18.0372 15.7141 18.3665 14.4369 18.4388 12.9949C18.5232 11.5088 18.5232 7.05854 18.4388 5.57243ZM16.5189 14.5895C16.2056 15.3767 15.5991 15.9832 14.8079 16.3005C13.623 16.7705 10.8114 16.662 9.50206 16.662C8.19268 16.662 5.37711 16.7665 4.19625 16.3005C3.40901 15.9873 2.80252 15.3808 2.48522 14.5895C2.01528 13.4046 2.12373 10.5931 2.12373 9.28369C2.12373 7.97431 2.0193 5.15873 2.48522 3.97788C2.7985 3.19064 3.405 2.58415 4.19625 2.26684C5.38112 1.79691 8.19268 1.90536 9.50206 1.90536C10.8114 1.90536 13.627 1.80093 14.8079 2.26684C15.5951 2.58013 16.2016 3.18663 16.5189 3.97788C16.9888 5.16275 16.8804 7.97431 16.8804 9.28369C16.8804 10.5931 16.9888 13.4086 16.5189 14.5895Z" fill="#F59A1B"/>
</svg>
