<svg width="37" height="56" viewBox="0 0 37 56" fill="none" xmlns="http://www.w3.org/2000/svg">
<g clip-path="url(#clip0_1002_201)">
<path d="M31.9202 0.498047C32.621 0.760608 33.3781 0.928474 34.0124 1.30295C35.69 2.29293 36.593 3.80086 36.7014 5.75213C36.7101 5.91282 36.7159 6.07351 36.7159 6.23564C36.7159 20.7367 36.7144 35.2364 36.7188 49.7375C36.7188 51.947 35.8114 53.6386 33.8968 54.7749C32.975 55.3216 31.9578 55.4995 30.8914 55.4995C22.7768 55.4923 14.6622 55.498 6.54897 55.4909C6.10105 55.4909 5.64735 55.4593 5.20521 55.3833C2.80087 54.9744 0.871912 52.8021 0.746205 50.3803C0.733201 50.1306 0.725976 49.8795 0.725976 49.6284C0.723086 35.2005 0.728866 20.7712 0.718751 6.34181C0.717307 3.88121 1.76053 2.07771 3.99581 0.995908C4.47264 0.764912 5.01014 0.660174 5.5202 0.498047C14.3197 0.498047 23.1192 0.498047 31.9202 0.498047ZM31.1284 38.9567V6.01756H6.29611V38.9582H31.1269L31.1284 38.9567ZM18.7238 50.0359V49.9972C19.2295 49.9972 19.7353 50.0187 20.2395 49.9929C21.8549 49.9111 22.8722 48.8365 22.862 47.2453C22.8534 45.7374 21.7162 44.5595 20.1803 44.5135C19.1905 44.4834 18.1964 44.4791 17.2067 44.5193C15.9207 44.5724 14.6867 45.7862 14.5885 47.0358C14.4787 48.4319 15.3861 49.6629 16.7876 49.914C17.4191 50.0273 18.0779 49.9986 18.7238 50.0359Z" fill="#FAE2CB"/>
</g>
<defs>
<clipPath id="clip0_1002_201">
<rect width="36" height="55" fill="white" transform="translate(0.71875 0.498047)"/>
</clipPath>
</defs>
</svg>
