<svg width="51" height="60" viewBox="0 0 51 60" fill="none" xmlns="http://www.w3.org/2000/svg">
<path d="M23.635 9.25267V4.95233C22.2471 4.95233 20.8854 4.96992 19.5254 4.94705C17.9984 4.92243 16.9949 3.43622 17.5689 2.05553C17.9115 1.23416 18.5515 0.75224 19.4367 0.748722C23.6471 0.731134 27.8576 0.729375 32.0663 0.748722C33.1967 0.753998 34.0749 1.71432 34.0802 2.83294C34.0854 3.9797 33.1932 4.92243 32.0245 4.94353C30.6593 4.96816 29.2941 4.94881 27.8802 4.94881V9.26322C33.1184 9.76449 37.7758 11.7027 41.9202 15.201C42.3689 14.7191 42.8036 14.239 43.2541 13.7729C43.8297 13.1749 44.4106 12.5839 44.9984 11.9982C45.9376 11.0625 47.2123 11.0221 48.068 11.8927C48.9219 12.7615 48.8732 14.0385 47.9376 14.9953C47.068 15.8852 46.1845 16.7594 45.308 17.6441C45.1567 17.7971 45.0141 17.9589 44.8454 18.14C49.2854 23.6804 51.2802 29.9805 50.5845 37.0651C50.0332 42.6775 47.781 47.5547 44.0071 51.7126C36.7358 59.7223 24.661 62.0159 14.9793 57.3004C4.96365 52.4249 -0.431137 41.7576 0.925385 31.1941C2.36886 19.9534 11.2993 10.4381 23.635 9.25267ZM4.91147 34.4163C4.90278 46.0193 14.1984 55.4836 25.6367 55.517C37.2106 55.5522 46.5619 46.1477 46.5862 34.4462C46.6106 22.8819 37.2541 13.3859 25.8297 13.3789C14.2732 13.3701 4.92017 22.7763 4.91147 34.4163Z" fill="#FAE2CB"/>
<path d="M42.418 34.4848C42.4215 43.7169 34.9415 51.294 25.8093 51.3045C16.5485 51.3151 9.07193 43.7662 9.07715 34.411C9.08237 25.1683 16.5554 17.6001 25.6841 17.593C34.9519 17.586 42.4128 25.1155 42.4163 34.4831L42.418 34.4848ZM23.665 29.1767C23.665 30.888 23.6128 32.6011 23.6945 34.3072C23.7206 34.8718 23.9519 35.5525 24.3276 35.9499C26.3485 38.0904 28.4302 40.1747 30.5311 42.2378C30.8615 42.5614 31.3815 42.7795 31.8441 42.8551C32.7067 42.9958 33.5345 42.4541 33.8998 41.6609C34.2772 40.8413 34.1258 39.9443 33.4389 39.2442C31.7119 37.4854 29.9606 35.7512 28.2476 33.9801C28.0232 33.7479 27.8545 33.3504 27.8511 33.0285C27.8215 30.1124 27.8337 27.1945 27.8337 24.2783C27.8337 22.7728 27.0041 21.8019 25.7328 21.8125C24.4806 21.823 23.6685 22.7763 23.6667 24.2449C23.665 25.8894 23.6667 27.5339 23.6667 29.1784L23.665 29.1767Z" fill="#FAE2CB"/>
</svg>
