<svg width="30" height="31" viewBox="0 0 30 31" fill="none" xmlns="http://www.w3.org/2000/svg">
<g clip-path="url(#clip0_1002_248)">
<path d="M14.3572 0.537109H16.1737C16.5394 0.582393 16.9076 0.61911 17.2722 0.672961C21.2049 1.25676 24.4404 3.08158 26.8966 6.21107C29.2942 9.26712 30.2911 12.7662 29.9266 16.6313C29.6783 19.2639 28.7596 21.6664 27.1658 23.7788C24.3609 27.4982 20.6104 29.5115 15.9633 29.7795C13.3602 29.9301 10.882 29.3756 8.55291 28.1885C8.37431 28.0979 8.22018 28.082 8.02691 28.1444C5.58532 28.9277 3.14128 29.6987 0.700917 30.4845C0.415902 30.5763 0.190826 30.5616 0 30.3217V30.028C0.0379205 29.9399 0.0831804 29.8542 0.113761 29.7636C0.89052 27.4749 1.66361 25.185 2.44771 22.8988C2.52722 22.6675 2.51743 22.4839 2.39388 22.2685C1.47034 20.6579 0.901529 18.9224 0.66055 17.0866C0.326606 14.5286 0.601835 12.0294 1.6318 9.65876C3.75658 4.77299 7.46177 1.8173 12.6838 0.77332C13.2355 0.66317 13.7994 0.614214 14.3572 0.537109ZM4.61774 26.0173C4.75107 25.9806 4.83303 25.961 4.91376 25.9353C6.02936 25.5816 7.14618 25.234 8.25688 24.8693C8.54801 24.7738 8.78654 24.7885 9.05443 24.9586C10.5089 25.8827 12.0966 26.4432 13.8067 26.6586C15.9193 26.9254 17.956 26.6317 19.9046 25.7909C21.8838 24.9378 23.5107 23.627 24.7694 21.872C25.9792 20.1854 26.696 18.3055 26.8869 16.2408C27.1266 13.6352 26.5407 11.2131 25.1315 9.00888C23.5242 6.49501 21.2648 4.83541 18.3976 4.01908C16.219 3.39857 14.0367 3.43406 11.8752 4.09251C9.76392 4.73505 7.96697 5.88551 6.50398 7.54511C4.84526 9.42745 3.87523 11.6231 3.65138 14.1174C3.40306 16.8907 4.07584 19.445 5.67584 21.7361C5.86911 22.0127 5.90336 22.2661 5.79205 22.5818C5.39694 23.7029 5.02141 24.8313 4.61896 26.0161L4.61774 26.0173Z" fill="#60340B"/>
<path d="M19.2885 22.2C18.4445 22.1976 17.631 21.9601 16.8176 21.7141C13.5601 20.7301 11.2555 18.5479 9.36561 15.8284C8.70261 14.8738 8.12646 13.8812 7.94909 12.7148C7.77417 11.5595 7.95888 10.4641 8.60842 9.46542C9.03778 8.8033 9.68365 8.53282 10.4176 8.40553C10.6378 8.36759 10.8616 8.34189 11.0843 8.31496C11.5418 8.25866 11.9161 8.42756 12.102 8.84001C12.5619 9.86196 12.9962 10.8949 13.417 11.934C13.5968 12.3771 13.3497 12.7565 13.1112 13.1016C12.9008 13.4051 12.6341 13.6695 12.4115 13.9644C12.3589 14.0342 12.3332 14.1958 12.376 14.257C13.5589 15.9349 14.9827 17.335 16.8995 18.1673C17.1075 18.2578 17.2286 18.2297 17.3656 18.0498C17.6604 17.6618 17.9797 17.291 18.2843 16.9103C18.6965 16.3951 19.0268 16.307 19.6384 16.5787C20.1729 16.8161 20.7026 17.0633 21.231 17.3155C21.6445 17.5125 22.0506 17.7255 22.4616 17.9262C22.7846 18.0841 22.924 18.3374 22.9399 18.6972C23.0439 20.9137 21.2335 22.0299 19.6824 22.1767C19.5564 22.189 19.4292 22.1927 19.2873 22.2012L19.2885 22.2Z" fill="#60340B"/>
</g>
<defs>
<clipPath id="clip0_1002_248">
<rect width="30" height="30" fill="white" transform="translate(0 0.537109)"/>
</clipPath>
</defs>
</svg>
